<?xml version="1.0" standalone="no"?>
<!DOCTYPE svg PUBLIC "-//W3C//DTD SVG 20010904//EN"
 "http://www.w3.org/TR/2001/REC-SVG-20010904/DTD/svg10.dtd">
<svg version="1.0" xmlns="http://www.w3.org/2000/svg"
 width="3000.000000pt" height="2000.000000pt" viewBox="0 0 3000.000000 2000.000000"
 preserveAspectRatio="xMidYMid meet">

<g transform="translate(0.000000,2000.000000) scale(0.100000,-0.100000)"
fill="#000000" stroke="none">
<path d="M14432 16833 c3 -17 98 -18 1988 -23 1973 -5 1985 -6 2060 -26 173
-48 284 -110 403 -223 129 -123 201 -239 254 -408 l28 -88 3 -1592 c2 -1580 3
-1593 22 -1593 20 0 20 12 20 1539 0 1050 -3 1564 -11 1617 -12 91 -50 217
-87 289 -70 139 -190 276 -318 361 -99 66 -171 98 -294 133 l-95 26 -1988 3
c-1900 2 -1988 2 -1985 -15z"/>
<path d="M17710 16082 c0 -43 -4 -82 -10 -88 -6 -6 -3 -10 10 -10 18 0 20 7
20 88 0 52 -4 88 -10 88 -6 0 -10 -33 -10 -78z"/>
<path d="M17891 16146 c-19 -7 -37 -18 -39 -26 -3 -8 0 -10 8 -5 8 5 11 4 6
-3 -4 -6 -13 -9 -21 -5 -17 6 -19 -5 -5 -27 6 -10 10 -11 10 -2 0 6 7 12 15
12 8 0 15 6 15 13 0 9 10 12 31 9 18 -3 29 -1 26 4 -3 5 6 10 19 10 13 1 21
-2 18 -7 -3 -5 4 -9 16 -9 12 0 33 -6 49 -14 15 -8 33 -11 40 -6 18 10 6 29
-17 25 -9 -1 -23 7 -30 19 -12 20 -13 20 -6 -4 6 -22 5 -23 -9 -11 -9 7 -15
17 -12 21 3 4 -5 10 -18 14 -35 9 -49 7 -41 -6 6 -10 4 -10 -7 -2 -10 8 -23 8
-48 0z m29 -16 c0 -5 -2 -10 -4 -10 -3 0 -8 5 -11 10 -3 6 -1 10 4 10 6 0 11
-4 11 -10z m160 -26 c0 -8 -19 -13 -24 -6 -3 5 1 9 9 9 8 0 15 -2 15 -3z"/>
<path d="M18180 16120 c0 -20 6 -23 45 -22 16 1 16 0 3 -4 -9 -3 -19 -15 -21
-27 l-4 -22 -2 23 c-2 41 -21 22 -21 -22 l0 -43 153 -2 152 -2 2 71 3 70 -141
0 c-109 0 -139 -3 -133 -12 6 -10 4 -10 -7 0 -19 17 -29 15 -29 -8z m265 -3
c22 -2 -17 -4 -87 -5 -71 -1 -128 1 -128 6 0 6 120 6 215 -1z m-208 -59 c-3
-8 -6 -5 -6 6 -1 11 2 17 5 13 3 -3 4 -12 1 -19z"/>
<path d="M17623 16055 c-1 -61 2 -71 17 -71 15 0 18 10 18 69 0 55 -2 66 -13
57 -10 -8 -14 -7 -17 2 -3 7 -5 -19 -5 -57z m17 -12 c-4 -42 -5 -44 -8 -15 -3
30 2 62 10 62 2 0 1 -21 -2 -47z"/>
<path d="M17540 16036 c0 -47 2 -51 23 -51 22 0 24 5 26 51 2 47 1 50 -24 50
-23 0 -25 -3 -25 -50z"/>
<path d="M17900 16080 c-24 -15 2 -32 52 -34 24 -1 50 -4 58 -6 10 -3 14 1 14
13 -2 15 1 16 15 5 14 -12 14 -11 3 4 -13 16 -56 22 -46 6 7 -10 -73 -4 -83 6
-4 5 -2 6 5 2 6 -4 12 -2 12 3 0 13 -10 14 -30 1z"/>
<path d="M17940 16081 c0 -5 9 -7 20 -4 11 3 20 7 20 9 0 2 -9 4 -20 4 -11 0
-20 -4 -20 -9z"/>
<path d="M18500 16078 c0 -7 5 -20 10 -28 8 -12 10 -9 10 13 0 15 -4 27 -10
27 -5 0 -10 -6 -10 -12z"/>
<path d="M17475 16018 c-1 -29 3 -37 13 -33 7 3 18 5 23 5 6 0 9 14 7 32 -2
23 -8 32 -23 33 -17 1 -20 -5 -20 -37z m32 -3 c0 -8 -4 -12 -9 -9 -5 3 -6 10
-3 15 9 13 12 11 12 -6z"/>
<path d="M17870 16045 c7 -8 16 -12 21 -9 13 8 1 24 -18 24 -13 0 -13 -3 -3
-15z"/>
<path d="M17920 16020 c-12 -7 -12 -12 -3 -21 14 -14 63 -19 63 -7 0 4 -5 8
-11 8 -5 0 -7 5 -4 10 4 6 11 7 17 4 7 -4 8 -2 4 4 -9 14 -45 15 -66 2z m30
-10 c0 -5 -5 -10 -11 -10 -5 0 -7 5 -4 10 3 6 8 10 11 10 2 0 4 -4 4 -10z"/>
<path d="M9465 15251 c-228 -37 -428 -169 -567 -374 -55 -80 -130 -242 -162
-349 -104 -341 -113 -804 -25 -1298 23 -131 75 -354 87 -376 6 -11 16 -9 54
11 26 14 50 25 53 25 4 0 -19 -23 -50 -52 -185 -169 -268 -398 -359 -993 -277
-1811 -480 -3893 -567 -5810 -18 -401 -13 -414 251 -571 64 -38 156 -89 206
-113 l90 -43 33 -393 c67 -817 257 -2625 281 -2683 14 -32 49 -42 155 -42 106
0 141 10 155 42 5 13 30 289 55 613 112 1424 287 3481 360 4223 19 194 35 357
35 364 0 6 2 9 5 6 3 -2 9 -150 15 -329 25 -814 77 -1943 155 -3374 67 -1223
86 -1519 98 -1531 19 -18 268 -29 290 -12 14 10 29 82 72 348 123 746 221
1437 289 2030 33 283 86 788 86 816 0 6 55 40 122 74 178 90 251 140 282 192
47 80 50 121 37 498 -52 1545 -168 3070 -347 4590 -49 418 -142 1126 -174
1327 -63 392 -142 607 -276 752 -63 68 -64 69 -27 52 21 -10 66 -28 101 -38
l62 -20 15 51 c43 150 93 411 122 631 25 198 25 625 0 780 -86 524 -314 846
-671 950 -98 28 -254 40 -341 26z m121 -644 c-9 -30 -16 -59 -16 -65 0 -5 55
-12 123 -15 67 -3 157 -13 200 -22 42 -9 82 -13 87 -10 6 3 10 25 11 48 l1 42
10 -40 c5 -22 11 -50 14 -62 3 -17 22 -28 84 -50 l81 -28 14 -49 c8 -27 15
-58 15 -67 0 -12 16 -25 44 -38 103 -45 103 -188 0 -256 -26 -17 -33 -32 -52
-107 -47 -191 -179 -402 -307 -489 l-35 -24 0 -202 c0 -173 2 -203 15 -203 23
0 18 47 75 -790 76 -1127 121 -2262 136 -3427 l7 -513 -385 0 c-212 0 -493 3
-626 7 l-242 6 0 136 c0 75 5 285 10 466 38 1296 103 2433 211 3708 16 198 28
364 26 370 -5 16 60 37 93 30 l27 -5 13 244 13 244 -48 65 c-26 35 -65 100
-87 143 -39 78 -88 242 -88 296 0 21 -8 33 -35 49 -112 66 -94 246 26 263 19
2 26 12 38 55 13 48 17 53 64 74 59 25 250 87 350 114 l69 18 36 73 c20 40 38
72 40 69 2 -2 -3 -28 -12 -58z"/>
<path d="M9263 14379 c-23 -5 -46 -15 -51 -22 -8 -9 25 -12 144 -12 85 0 154
2 154 6 0 27 -170 47 -247 28z"/>
<path d="M9853 14370 c-30 -10 -54 -29 -36 -31 4 0 67 -1 138 -2 72 -2 138 -6
148 -11 11 -5 17 -4 17 3 0 34 -193 63 -267 41z"/>
<path d="M9273 14263 c-28 -11 -10 -21 28 -16 40 6 41 5 33 -18 -12 -33 -8
-97 6 -114 30 -37 71 3 72 69 1 43 2 45 26 39 36 -9 19 15 -24 33 -32 13 -116
18 -141 7z"/>
<path d="M9924 14249 c-32 -9 -61 -35 -51 -45 3 -3 18 2 33 12 l27 18 -7 -36
c-8 -43 15 -108 38 -108 35 0 64 102 40 141 -5 9 3 10 30 5 20 -4 36 -3 36 2
0 21 -88 28 -146 11z"/>
<path d="M12680 10730 c0 -4283 0 -4290 20 -4290 20 0 20 7 20 4290 0 4283 0
4290 -20 4290 -20 0 -20 -7 -20 -4290z"/>
<path d="M19170 11435 c0 -1388 0 -1395 20 -1395 20 0 20 7 20 1395 0 1388 0
1395 -20 1395 -20 0 -20 -7 -20 -1395z"/>
<path d="M20720 10740 l0 -50 70 0 70 0 0 -215 0 -215 60 0 60 0 0 215 0 215
70 0 70 0 0 50 0 50 -200 0 -200 0 0 -50z"/>
<path d="M21256 10537 c-49 -138 -91 -258 -93 -264 -4 -10 12 -13 60 -13 l65
0 17 49 16 49 94 0 c102 1 105 -1 124 -60 l13 -38 65 0 c35 0 63 4 61 8 -1 5
-43 124 -93 265 l-90 257 -75 0 -75 0 -89 -253z m199 14 c16 -50 26 -93 23
-96 -3 -3 -32 -5 -65 -3 l-60 3 30 97 c17 54 33 96 36 93 4 -2 20 -44 36 -94z"/>
<path d="M21777 10703 c31 -49 68 -106 84 -129 l28 -41 -84 -137 -84 -137 72
3 71 3 42 73 c22 39 43 75 47 78 3 3 30 -30 59 -75 l53 -81 72 0 72 0 -84 129
c-47 72 -85 132 -85 135 0 3 36 64 80 136 l80 130 -70 0 -70 0 -42 -75 c-24
-41 -46 -75 -50 -75 -4 0 -29 34 -55 75 l-48 75 -72 0 -73 0 57 -87z"/>
<path d="M22280 10525 l0 -265 59 0 c54 0 60 2 63 23 2 12 2 131 0 265 l-3
242 -59 0 -60 0 0 -265z"/>
<path d="M4768 8970 c-106 -19 -280 -94 -292 -125 -3 -9 -6 -42 -6 -72 l0 -55
-82 -87 c-46 -48 -94 -109 -108 -136 -14 -28 -29 -52 -34 -54 -24 -10 -46 -44
-46 -71 0 -32 30 -70 55 -70 22 0 18 23 -5 38 -39 24 -14 81 30 67 23 -7 28
-53 8 -73 -15 -15 -4 -26 17 -18 37 14 38 98 0 112 -23 9 -18 26 26 90 129
186 311 303 496 320 207 18 442 -112 583 -323 49 -73 49 -74 30 -93 -20 -20
-26 -66 -12 -85 4 -6 19 -16 34 -24 22 -11 33 -12 53 -3 57 26 55 102 -3 124
-18 7 -35 28 -50 59 -13 27 -58 85 -99 130 l-76 80 2 64 c2 61 1 64 -31 88
-122 91 -343 144 -490 117z m297 -55 c44 -14 106 -42 137 -61 57 -35 58 -37
58 -80 0 -24 -2 -44 -5 -44 -3 0 -23 13 -46 29 -59 43 -174 88 -259 100 -127
19 -271 -12 -392 -84 l-58 -34 0 44 c0 41 3 47 40 70 150 95 353 118 525 60z
m449 -521 c26 -25 17 -47 -26 -63 -25 -9 -27 -8 -33 20 -11 50 26 77 59 43z"/>
<path d="M3885 8508 c-38 -117 -85 -317 -111 -473 -10 -63 -18 -191 -21 -345
-5 -248 5 -395 41 -582 l13 -68 -372 0 -371 0 -55 -27 c-67 -35 -114 -94 -128
-165 -8 -38 -11 -741 -9 -2418 3 -2253 4 -2367 21 -2405 23 -50 70 -100 122
-128 38 -21 54 -22 378 -25 l337 -3 0 -103 c0 -90 3 -107 23 -136 50 -75 170
-98 257 -50 65 36 80 72 80 193 l0 97 814 0 813 0 5 -105 c4 -85 9 -111 25
-133 66 -90 199 -106 284 -35 46 39 59 79 59 182 l0 90 308 3 c292 3 309 4
347 24 51 28 91 68 119 119 l21 40 3 2370 c2 1681 -1 2385 -9 2423 -14 71 -61
130 -128 165 l-55 27 -324 0 -325 0 7 48 c50 353 48 700 -5 1022 -24 145 -84
389 -98 403 -25 25 -22 -12 12 -150 73 -296 104 -580 94 -873 -5 -155 -28
-384 -43 -432 -5 -17 -27 -18 -270 -18 l-264 0 0 370 0 370 116 0 c131 0 175
13 199 61 22 42 19 101 -7 134 -44 56 -21 55 -866 55 -429 0 -794 -3 -811 -6
-42 -9 -89 -56 -97 -99 -9 -48 21 -105 66 -127 23 -12 58 -18 103 -18 l67 0 0
-370 0 -370 -205 0 c-204 0 -205 0 -210 23 -59 258 -70 683 -26 977 20 127 62
316 95 422 8 25 12 49 9 52 -10 10 -23 7 -28 -6z m1555 -1098 l0 -370 -575 0
-575 0 0 370 0 370 575 0 575 0 0 -370z"/>
<path d="M13110 7045 c0 -531 2 -605 15 -605 13 0 15 74 15 605 0 531 -2 605
-15 605 -13 0 -15 -74 -15 -605z"/>
<path d="M13980 7045 c0 -531 2 -605 15 -605 13 0 15 74 15 605 0 531 -2 605
-15 605 -13 0 -15 -74 -15 -605z"/>
<path d="M13410 6363 c-198 -361 -401 -634 -675 -909 -214 -215 -343 -321
-612 -503 -114 -77 -147 -111 -107 -111 39 0 293 170 473 317 147 120 427 403
547 553 164 205 295 403 412 621 56 103 63 129 34 129 -13 0 -35 -29 -72 -97z"/>
<path d="M11990 5174 c-178 -48 -300 -200 -340 -424 -16 -92 -40 -369 -40
-471 0 -258 115 -372 396 -395 92 -7 117 -3 108 21 -4 11 -21 15 -58 15 -80 1
-197 25 -252 53 -149 76 -179 209 -135 600 24 207 50 307 101 386 63 99 160
163 279 185 45 8 66 17 66 27 0 20 -58 22 -125 3z"/>
<path d="M11951 4955 c-56 -48 -64 -133 -19 -190 23 -29 83 -59 98 -50 18 11
10 34 -12 40 -87 27 -100 131 -23 176 19 12 35 27 35 35 0 23 -46 16 -79 -11z"/>
<path d="M15050 3210 c0 -20 7 -20 373 -20 361 0 375 1 392 20 18 20 17 20
-373 20 -385 0 -392 0 -392 -20z"/>
<path d="M16110 2003 c0 -264 2 -291 19 -319 40 -66 18 -64 756 -64 738 0 716
-2 756 64 17 28 19 55 19 319 l0 287 -775 0 -775 0 0 -287z"/>
<path d="M25580 2004 c0 -270 1 -289 20 -319 42 -67 16 -65 755 -65 738 0 716
-2 756 64 17 28 19 55 19 319 l0 287 -775 0 -775 0 0 -286z"/>
<path d="M8585 2053 c-235 -53 -547 -174 -625 -240 -67 -57 -75 -140 -18 -176
49 -31 1211 -53 1268 -24 23 11 25 19 28 89 3 80 -25 246 -54 319 -22 54 -50
59 -124 24 -69 -33 -119 -31 -239 10 -90 30 -97 30 -236 -2z"/>
<path d="M10065 2049 c-99 -35 -142 -36 -205 -4 -71 36 -88 33 -110 -17 -26
-60 -51 -187 -57 -293 -8 -139 -29 -129 299 -133 352 -5 883 15 919 34 63 32
50 132 -24 188 -46 35 -220 116 -347 160 -120 43 -332 97 -370 95 -14 -1 -61
-15 -105 -30z"/>
<path d="M12730 1674 l0 -106 39 -39 c32 -33 45 -39 80 -39 54 0 97 22 121 63
16 26 20 50 20 130 l0 97 -130 0 -130 0 0 -106z"/>
<path d="M14190 1695 c0 -54 6 -99 16 -125 39 -98 179 -108 234 -17 16 26 20
50 20 130 l0 97 -135 0 -135 0 0 -85z"/>
</g>
</svg>
