<?xml version="1.0" standalone="no"?>
<!DOCTYPE svg PUBLIC "-//W3C//DTD SVG 20010904//EN"
 "http://www.w3.org/TR/2001/REC-SVG-20010904/DTD/svg10.dtd">
<svg version="1.0" xmlns="http://www.w3.org/2000/svg"
 width="18" height="18" viewBox="0 0 512.000000 512.000000"
 preserveAspectRatio="xMidYMid meet">

<g transform="translate(0.000000,512.000000) scale(0.100000,-0.100000)"
fill="#000000" stroke="none">
<path d="M2351 4628 c-188 -21 -415 -95 -591 -193 -429 -240 -711 -645 -807
-1160 -21 -113 -24 -435 -5 -545 46 -263 135 -490 271 -696 69 -104 1223
-1508 1259 -1532 35 -23 129 -23 164 0 35 23 1190 1428 1259 1532 136 206 225
433 271 696 19 111 16 431 -5 547 -75 401 -267 742 -556 984 -345 290 -790
419 -1260 367z m343 -963 c289 -61 506 -329 506 -625 0 -363 -313 -658 -675
-637 -167 10 -298 70 -422 193 -149 149 -213 368 -168 578 72 341 416 564 759
491z"/>
</g>
</svg>
